<?xml version="1.0" standalone="no"?>
<!DOCTYPE svg PUBLIC "-//W3C//DTD SVG 20010904//EN"
 "http://www.w3.org/TR/2001/REC-SVG-20010904/DTD/svg10.dtd">
<svg version="1.0" xmlns="http://www.w3.org/2000/svg"
 width="70.000000pt" height="70.000000pt" viewBox="0 0 70.000000 70.000000"
 preserveAspectRatio="xMidYMid meet">
<metadata>
Created by potrace 1.11, written by Peter Selinger 2001-2013
</metadata>
<g transform="translate(0.000000,70.000000) scale(0.100000,-0.100000)"
fill="#000000" stroke="none">
<path d="M385 510 c-132 -50 -249 -94 -260 -100 -11 -5 -30 -12 -42 -15 -13
-4 -23 -10 -23 -14 0 -4 45 -26 100 -49 l100 -41 171 135 c94 75 172 134 174
132 2 -2 -49 -64 -113 -139 -64 -75 -123 -143 -130 -151 -11 -14 -2 -23 73
-67 90 -53 100 -57 109 -42 5 7 96 423 96 436 0 10 -17 4 -255 -85z"/>
<path d="M259 215 c-1 -22 -2 -53 -3 -70 0 -16 1 -34 3 -38 3 -9 91 71 91 83
0 3 -17 14 -37 25 -21 11 -41 24 -45 30 -4 5 -8 -8 -9 -30z"/>
</g>
</svg>
